<svg width="606" height="251" viewBox="0 0 606 251" fill="none" xmlns="http://www.w3.org/2000/svg">
<g opacity="0.08">
<path d="M44.6968 54.5301C44.6968 58.3801 42.6068 59.9201 38.2068 59.9201H27.0968V48.92H38.2068C42.6068 48.92 44.6968 50.7901 44.6968 54.5301ZM43.0468 26.59C43.0468 30.33 40.9568 31.9801 36.5568 31.9801H27.0968V20.9801H36.5568C40.9568 20.9801 43.0468 22.74 43.0468 26.59ZM69.6668 58.16C69.6668 49.4701 64.3868 41.8801 54.8168 39.5701C62.5168 37.5901 67.9068 31.2101 67.9068 21.86C67.9068 8.33005 57.8968 1.62005 42.3868 1.62005H2.67684V79.5001H43.4868C60.4268 79.5001 69.6668 71.8 69.6668 58.16Z" fill="#303031"/>
<path d="M135.292 1.62005H83.3721V79.5001H135.292V60.0301H107.792V49.0301H131.992V30.66H107.792V21.09H135.292V1.62005Z" fill="#303031"/>
<path d="M210.165 55.41C210.165 31.43 173.975 33.0801 173.975 23.29C173.975 20.65 175.515 19.33 177.495 19.33C180.135 19.33 182.665 20.76 182.885 25.49H209.175C208.515 9.32005 196.415 0.300049 177.605 0.300049C160.995 0.300049 147.795 8.44005 147.795 24.0601C147.355 50.68 184.095 46.8301 184.205 57.3901C184.205 60.1401 181.895 61.2401 179.475 61.2401C177.055 61.2401 173.975 60.2501 173.535 54.5301H147.575C148.675 72.0201 162.645 80.2701 180.465 80.2701C199.275 80.2701 210.165 69.7101 210.165 55.41Z" fill="#303031"/>
<path d="M219.845 20.9801H240.305V79.5001H264.725V20.9801H285.405V1.62005H219.845V20.9801Z" fill="#303031"/>
<path d="M62.8468 140.41C62.8468 116.43 26.6568 118.08 26.6568 108.29C26.6568 105.65 28.1968 104.33 30.1768 104.33C32.8168 104.33 35.3468 105.76 35.5668 110.49H61.8568C61.1968 94.3201 49.0968 85.3 30.2868 85.3C13.6768 85.3 0.476836 93.44 0.476836 109.06C0.0368359 135.68 36.7768 131.83 36.8868 142.39C36.8868 145.14 34.5768 146.24 32.1568 146.24C29.7368 146.24 26.6568 145.25 26.2168 139.53H0.256836C1.35684 157.02 15.3268 165.27 33.1468 165.27C51.9568 165.27 62.8468 154.71 62.8468 140.41Z" fill="#303031"/>
<path d="M101.347 120.5V106.2H108.277C113.777 106.2 115.867 109.06 115.867 113.35C115.867 117.64 113.777 120.5 108.277 120.5H101.347ZM140.617 113.35C140.617 97.62 130.607 86.62 111.027 86.62H76.9268V164.5H101.347V139.75H111.027C130.607 139.75 140.617 127.76 140.617 113.35Z" fill="#303031"/>
<path d="M205.782 86.62H153.862V164.5H205.782V145.03H178.282V134.03H202.482V115.66H178.282V106.09H205.782V86.62Z" fill="#303031"/>
<path d="M274.275 164.5H300.015L271.635 86.62H243.475L214.985 164.5H240.615L244.465 152.73H270.425L274.275 164.5ZM264.485 134.36H250.405L257.445 112.69L264.485 134.36Z" fill="#303031"/>
<path d="M358.144 164.5H387.184L358.584 123.91L385.424 86.62H357.814L335.484 119.4V86.62H311.064V164.5H335.484V130.73L358.144 164.5Z" fill="#303031"/>
<path d="M399.601 164.5H424.021V86.62H399.601V164.5Z" fill="#303031"/>
<path d="M490.82 86.62V126.44L464.97 86.62H440.55V164.5H464.97V125.34L490.82 164.5H515.24V86.62H490.82Z" fill="#303031"/>
<path d="M568.953 85.8501C544.533 85.8501 529.573 102.24 529.573 125.45C529.573 148.66 544.643 165.05 569.173 165.05C589.303 165.05 600.303 153.28 605.693 143.93V119.51H565.983V136.78H585.453C581.823 141.62 577.313 143.6 571.813 143.6C559.823 143.6 554.323 137.55 554.323 125.45C554.323 115.11 559.603 108.4 569.063 108.4C574.123 108.4 577.643 110.27 579.513 113.24H605.253C602.943 96.6301 589.633 85.8501 568.953 85.8501Z" fill="#303031"/>
<path d="M0.476836 210.45C0.476836 233.66 15.1068 250.05 38.9768 250.05C59.5468 250.05 73.5168 237.73 76.7068 219.36H50.9668C48.6568 224.53 44.0368 227.5 38.5368 227.5C30.2868 227.5 25.2268 220.79 25.2268 210.45C25.2268 200.11 30.2868 193.4 38.5368 193.4C44.0368 193.4 48.6568 196.37 50.9668 201.54H76.7068C73.5168 183.17 59.5468 170.85 38.9768 170.85C15.1068 170.85 0.476836 187.24 0.476836 210.45Z" fill="#303031"/>
<path d="M168.879 210.23C168.879 186.8 151.169 170.3 128.949 170.3C106.839 170.3 88.7991 186.8 88.7991 210.23C88.7991 233.66 106.839 250.27 128.949 250.27C150.949 250.27 168.879 233.66 168.879 210.23ZM113.659 210.23C113.659 199.67 118.939 192.85 128.949 192.85C138.739 192.85 144.129 199.67 144.129 210.23C144.129 220.57 138.739 227.5 128.949 227.5C118.939 227.5 113.659 220.57 113.659 210.23Z" fill="#303031"/>
<path d="M182.749 215.51C182.749 238.5 197.049 250.27 216.519 250.27C235.989 250.27 251.719 238.5 251.719 215.51V171.62H227.409V215.51C227.409 222.22 224.439 227.17 217.069 227.17C209.699 227.17 207.059 222.22 207.059 215.51V171.62H182.749V215.51Z" fill="#303031"/>
<path d="M308.891 198.68C308.891 203.3 306.471 205.28 301.851 205.28H292.171V192.08H301.851C306.471 192.08 308.891 194.72 308.891 198.68ZM267.751 171.62V249.5H292.171V221.56H292.281L306.911 249.5H333.751L316.811 219.69C327.921 216.06 333.641 207.37 333.641 197.14C333.641 182.84 323.631 171.62 304.051 171.62H267.751Z" fill="#303031"/>
<path d="M407.112 225.41C407.112 201.43 370.922 203.08 370.922 193.29C370.922 190.65 372.462 189.33 374.442 189.33C377.082 189.33 379.612 190.76 379.832 195.49H406.122C405.462 179.32 393.362 170.3 374.552 170.3C357.942 170.3 344.742 178.44 344.742 194.06C344.302 220.68 381.042 216.83 381.152 227.39C381.152 230.14 378.842 231.24 376.422 231.24C374.002 231.24 370.922 230.25 370.482 224.53H344.522C345.622 242.02 359.592 250.27 377.412 250.27C396.222 250.27 407.112 239.71 407.112 225.41Z" fill="#303031"/>
<path d="M473.112 171.62H421.192V249.5H473.112V230.03H445.612V219.03H469.812V200.66H445.612V191.09H473.112V171.62Z" fill="#303031"/>
</g>
</svg>
